<?xml version="1.0" encoding="UTF-8" standalone="no"?>
<svg
   xmlns:dc="http://purl.org/dc/elements/1.1/"
   xmlns:cc="http://creativecommons.org/ns#"
   xmlns:rdf="http://www.w3.org/1999/02/22-rdf-syntax-ns#"
   xmlns:svg="http://www.w3.org/2000/svg"
   xmlns="http://www.w3.org/2000/svg"
   id="svg8"
   version="1.1"
   viewBox="0 0 33.866666 33.866668"
   height="128"
   width="128">
  <defs
     id="defs2" />
  <metadata
     id="metadata5">
    <rdf:RDF>
      <cc:Work
         rdf:about="">
        <dc:format>image/svg+xml</dc:format>
        <dc:type
           rdf:resource="http://purl.org/dc/dcmitype/StillImage" />
        <dc:title></dc:title>
      </cc:Work>
    </rdf:RDF>
  </metadata>
  <g
     transform="translate(0,-263.13332)"
     id="layer1">
    <path
       style="fill:#ff0000;fill-opacity:0;stroke-width:0.26458332"
       d="m 136.07143,288.83572 v 7.40833 c 0,2.76463 -1.76741,5.11545 -4.23333,5.98726 v 2.47941 c 0,3.50705 -2.84295,6.35 -6.35001,6.35 h -21.16666 c -3.50705,0 -6.350001,-2.84295 -6.350001,-6.35 v -2.47941 c -2.465917,-0.87181 -4.233334,-3.22263 -4.233334,-5.98726 v -7.40833 c 0,-1.7534 1.421607,-3.175 3.175,-3.175 h 35.983335 c 1.7534,0 3.175,1.4216 3.175,3.175 z M 98.207702,277.19405 c -2.621228,0 -4.981046,-1.60814 -5.920317,-4.05527 -10.271125,-26.75784 -23.94929,-24.06174 -23.94929,-50.97807 0,-25.7167 20.85049,-46.56666 46.566665,-46.56666 25.71618,0 46.56667,20.84996 46.56667,46.56666 0,26.91633 -13.67816,24.22023 -23.94902,50.97807 -0.93927,2.44713 -3.29936,4.05527 -5.92032,4.05527 z m -4.469607,-55.03334 c 0,-11.6713 9.495365,-21.16666 21.166665,-21.16666 2.33812,0 4.23333,-1.89548 4.23333,-4.23334 0,-2.33786 -1.89521,-4.23333 -4.23333,-4.23333 -16.339871,0 -29.633331,13.29346 -29.633331,29.63333 0,2.33786 1.895475,4.23334 4.233333,4.23334 2.337858,0 4.233333,-1.89548 4.233333,-4.23334 z"
       id="path5210" />
    <g
       transform="matrix(0.31243373,0,0,0.31243373,-6.7754435,249.23944)"
       id="g5288">
      <circle
         style="fill:#000000;fill-opacity:1;stroke:#969696;stroke-width:0.20637499;stroke-linejoin:round;stroke-miterlimit:4;stroke-dasharray:none;stroke-opacity:1"
         id="path4485"
         cx="78.430054"
         cy="79.852676"
         r="25.513393" />
      <circle
         style="fill:#000000;fill-opacity:1;stroke:#969696;stroke-width:0.10893207;stroke-linejoin:round;stroke-miterlimit:4;stroke-dasharray:none;stroke-opacity:1"
         id="path4485-3"
         cx="114.90478"
         cy="97.428574"
         r="13.466877" />
      <circle
         style="fill:#000000;fill-opacity:1;stroke:#969696;stroke-width:0.15004079;stroke-linejoin:round;stroke-miterlimit:4;stroke-dasharray:none;stroke-opacity:1"
         id="path4485-6"
         cx="91.659218"
         cy="122.94197"
         r="18.549002" />
      <circle
         style="fill:none;fill-opacity:1;stroke:#000000;stroke-width:3;stroke-linejoin:round;stroke-miterlimit:4;stroke-dasharray:none;stroke-opacity:1"
         id="path4485-3-7"
         cx="66.145836"
         cy="111.79168"
         r="6.3142576" />
      <circle
         style="fill:none;fill-opacity:1;stroke:#000000;stroke-width:3;stroke-linejoin:round;stroke-miterlimit:4;stroke-dasharray:none;stroke-opacity:1"
         id="path4485-3-7-5"
         cx="112.41032"
         cy="71.1213"
         r="6.3142576" />
      <circle
         style="fill:none;fill-opacity:1;stroke:#000000;stroke-width:3;stroke-linejoin:round;stroke-miterlimit:4;stroke-dasharray:none;stroke-opacity:1"
         id="path4485-3-7-3"
         cx="61.988102"
         cy="132.38417"
         r="9.0630474" />
      <circle
         style="fill:none;fill-opacity:1;stroke:#000000;stroke-width:3;stroke-linejoin:round;stroke-miterlimit:4;stroke-dasharray:none;stroke-opacity:1"
         id="path4485-3-7-56"
         cx="40.821426"
         cy="103.4762"
         r="15.782311" />
      <path
         id="path5233"
         d="m 95.627978,131.43816 v 1.41386 c 0,0.52763 -0.337307,0.97628 -0.807924,1.14266 v 0.47319 c 0,0.66932 -0.542572,1.21189 -1.211886,1.21189 h -4.039622 c -0.669314,0 -1.211886,-0.54257 -1.211886,-1.21189 v -0.47319 c -0.470616,-0.16638 -0.807924,-0.61503 -0.807924,-1.14266 v -1.41386 c 0,-0.33464 0.271311,-0.60594 0.605943,-0.60594 h 6.867356 c 0.334633,0 0.605943,0.2713 0.605943,0.60594 z m -7.226225,-2.2218 c -0.500257,0 -0.950624,-0.3069 -1.129883,-0.77394 -1.960226,-5.10669 -4.57068,-4.59213 -4.57068,-9.72907 0,-4.90799 3.979279,-8.88717 8.887167,-8.88717 4.907887,0 8.887173,3.97918 8.887173,8.88717 0,5.13694 -2.610463,4.62238 -4.570635,9.72907 -0.179258,0.46704 -0.629677,0.77394 -1.129883,0.77394 z m -0.853017,-10.50301 c 0,-2.22745 1.812174,-4.03962 4.039621,-4.03962 0.446227,0 0.807924,-0.36175 0.807924,-0.80792 0,-0.44618 -0.361697,-0.80793 -0.807924,-0.80793 -3.118436,0 -5.65547,2.53704 -5.65547,5.65547 0,0.44618 0.361748,0.80793 0.807924,0.80793 0.446176,0 0.807925,-0.36175 0.807925,-0.80793 z"
         style="fill:#ffffed;fill-opacity:1;stroke-width:0.05049526" />
      <path
         id="path5244"
         d="m 78.430055,62.427984 c -9.832171,0 -17.802674,7.9705 -17.802674,17.80268 0,9.83217 7.970503,17.80267 17.802674,17.80267 9.83218,0 17.80268,-7.9705 17.80268,-17.80267 0,-9.83218 -7.9705,-17.80268 -17.80268,-17.80268 z m 0,3.44568 c 7.93454,0 14.357,6.42124 14.357,14.357 0,7.93454 -6.42124,14.35699 -14.357,14.35699 -7.934535,0 -14.356995,-6.42123 -14.356995,-14.35699 0,-7.93454 6.421239,-14.357 14.356995,-14.357 m 10.06454,9.35121 -1.61774,-1.63081 c -0.33502,-0.33775 -0.88044,-0.33997 -1.21819,-0.005 l -10.146954,10.0654 -4.292168,-4.32698 c -0.33502,-0.33775 -0.880443,-0.33997 -1.218191,-0.005 l -1.630883,1.61775 c -0.337749,0.33502 -0.339974,0.88045 -0.0049,1.21827 l 6.516713,6.56947 c 0.335021,0.33775 0.880443,0.33998 1.218191,0.005 l 12.389302,-12.28987 c 0.33767,-0.3351 0.33983,-0.88052 0.005,-1.21827 z"
         style="fill:#ffffff;fill-opacity:1;stroke-width:0.07178499" />
      <path
         id="path5255"
         d="m 118.07977,104.61012 c 0,1.66732 -1.35649,3.02381 -3.02381,3.02381 -1.66733,0 -3.02381,-1.35649 -3.02381,-3.02381 0,-1.66733 1.35648,-3.02382 3.02381,-3.02382 1.66732,0 3.02381,1.35649 3.02381,3.02382 z m -5.69762,-15.376109 0.51406,10.280954 c 0.0242,0.482786 0.42261,0.861815 0.906,0.861815 h 2.5075 c 0.48339,0 0.88185,-0.379029 0.906,-0.861815 l 0.51405,-10.280954 c 0.0259,-0.518168 -0.3872,-0.952463 -0.90601,-0.952463 h -3.53558 c -0.51882,0 -0.9319,0.434295 -0.90602,0.952463 z"
         style="fill:#ffffff;fill-opacity:1;stroke-width:0.03779763" />
      <path
         id="path5266"
         d="m 62.137384,126.72523 c -1.810979,0 -2.983954,0.74198 -3.90486,2.06525 -0.167056,0.24004 -0.115553,0.56916 0.117481,0.74586 l 0.978739,0.74213 c 0.23535,0.17844 0.570209,0.13672 0.754463,-0.0941 0.568325,-0.71199 0.989901,-1.12192 1.877637,-1.12192 0.697991,0 1.561336,0.44921 1.561336,1.12605 0,0.51167 -0.422393,0.77445 -1.111581,1.16084 -0.803697,0.45059 -1.867246,1.01137 -1.867246,2.41418 v 0.22207 c 0,0.30074 0.243789,0.54452 0.544526,0.54452 h 1.644262 c 0.300738,0 0.544526,-0.24378 0.544526,-0.54452 v -0.13098 c 0,-0.97244 2.84215,-1.01293 2.84215,-3.6444 2.3e-5,-1.98171 -2.055606,-3.48496 -3.981433,-3.48496 z m -0.227362,8.47325 c -0.866612,0 -1.571659,0.70504 -1.571659,1.57165 0,0.8666 0.705047,1.57164 1.571659,1.57164 0.866611,0 1.571658,-0.70504 1.571658,-1.57165 0,-0.86662 -0.705047,-1.57164 -1.571658,-1.57164 z"
         style="fill:currentColor;stroke-width:0.02268856" />
      <circle
         style="fill:#000000;fill-opacity:1;stroke:#000000;stroke-width:3;stroke-linejoin:round;stroke-miterlimit:4;stroke-dasharray:none;stroke-opacity:1"
         id="path4485-3-7-2"
         cx="42.85717"
         cy="76.650002"
         r="6.3142576" />
    </g>
  </g>
</svg>
